<svg width="159" height="158" viewBox="0 0 159 158" fill="none" xmlns="http://www.w3.org/2000/svg">
<path d="M151.062 113.237C149.679 116.174 149.278 115.003 149.248 112.896C148.868 86.0024 135.324 69.9709 131.615 68.4861C135.522 68.4861 138.321 66.8834 140.022 65.3291C144.087 61.6156 140.91 62.2838 139.576 62.1238C138.88 62.0402 137.989 61.9059 136.852 61.6812C130.203 60.3677 127.196 58.2998 124.424 55.5275C129.325 53.6638 131.646 49.7196 132.605 46.8652C134.179 42.1802 132.558 43.6322 131.208 43.8007C127.096 44.3138 117.082 42.4161 112.802 38.1364C115.796 36.1995 117.6 34.3146 118.646 32.5128C119.929 30.3015 120.134 28.057 119.986 26.4336C119.594 22.1272 118.827 24.7931 117.601 25.7799C117.042 26.2295 116.254 26.6962 115.113 27.088C104.067 30.881 76.5076 21.8888 54.3589 43.8173C46.1544 51.9402 42.5168 61.8541 45.8583 69.713C50.0145 77.4628 55.7545 77.8835 55.3578 78.7699C55.0756 79.4003 48.1533 78.8856 42.8099 71.2388C31.7429 78.5139 27.8917 88.7285 28.2648 97.7415C28.7548 109.58 35.3848 115.38 36.2527 115.174C37.2194 114.944 35.2909 112.96 35.2909 105.316L66.8486 91.9663C73.9834 88.9481 70.0922 91.7427 69.1578 92.3518C67.1661 93.6501 63.8087 95.5055 60.3882 98.105C61.5085 102.837 61.9803 108.164 61.551 112.962C60.9115 120.11 58.7126 121.497 59.3481 122.133C59.8884 122.673 64.9768 120.432 66.7743 114.64C67.5997 118.493 67.2473 127.507 63.9259 135.716C60.9832 142.989 57.5682 144.715 58.2109 145.358C58.7762 145.923 64.1053 146.155 69.9098 140.351C69.9098 140.737 69.8085 158.838 60.2301 156.471C25.6708 147.93 0.0456543 116.722 0.0456543 79.5238C0.0456543 35.7479 35.5331 0.26062 79.309 0.26062C123.085 0.26062 158.572 35.7479 158.572 79.5238C158.572 91.5802 155.878 103.006 151.062 113.237ZM124.968 80.1635C125.567 78.6362 125.967 78.1554 126.526 79.955C127.516 83.1459 129.312 91.0403 130.201 96.9288C134.209 123.485 128.058 144.07 107.144 153.424C102.411 155.541 93.9781 157.879 93.5157 157.159C93.0245 156.394 95.4663 156.071 101.541 148.583C115.818 130.987 115.199 117.052 113.67 107.321C108.071 113.534 102.749 115.809 100.302 116.32C98.0134 116.798 98.9779 115.753 99.3464 115.108C99.7329 114.432 100.306 113.211 100.98 110.783C104.488 98.1351 103.593 75.6904 96.9542 71.0693C96.0345 77.4237 87.5344 81.0729 81.4025 81.0859C75.8148 81.0978 70.1884 79.4813 67.0887 74.0123C61.4681 64.0955 67.3088 51.5605 81.8475 46.3135C88.0244 44.0842 95.5851 43.3628 95.8202 44.1466C96.0818 45.0184 91.0298 45.5823 89.7207 50.3571C94.9205 50.7783 99.1066 53.0134 103.437 54.26C106.262 55.0732 108.206 55.1053 109.431 55.0267C110.551 54.955 111.782 54.7314 110.101 56.4131C108.49 58.0237 104.97 60.1268 101.996 60.1268C110.497 64.7167 117.138 72.4236 119.151 85.9619C123.021 84.3898 124.318 81.8207 124.968 80.1635ZM91.911 59.1595C91.6384 58.6504 90.3234 60.1376 85.5007 59.1074C73.084 56.4552 71.6201 67.1396 73.5294 70.2955C75.1096 72.9075 80.6655 74.6871 85.0121 72.2279C89.0895 69.9209 89.1544 65.1815 87.9032 62.4849C90.0704 62.1687 92.2046 59.7079 91.911 59.1595ZM80.9594 62.5367C79.0026 62.373 77.2836 63.8268 77.1199 65.7836C76.9563 67.7405 78.41 69.4594 80.3668 69.623C82.3237 69.7866 84.0427 68.333 84.2063 66.3761C84.3699 64.4193 82.9163 62.7003 80.9594 62.5367Z" fill="#5752E5"/>
</svg>
